<svg width="23" height="24" viewBox="0 0 23 24" fill="none" xmlns="http://www.w3.org/2000/svg">
<path d="M19.9621 8.01002L13.685 2.77002C12.4584 1.75002 10.5417 1.74002 9.32463 2.76002L3.04755 8.01002C2.14671 8.76002 1.60046 10.26 1.79213 11.44L2.99963 18.98C3.27755 20.67 4.78213 22 6.42088 22H16.5792C18.1988 22 19.7321 20.64 20.01 18.97L21.2175 11.43C21.39 10.26 20.8438 8.76002 19.9621 8.01002ZM12.2188 18C12.2188 18.41 11.893 18.75 11.5 18.75C11.1071 18.75 10.7813 18.41 10.7813 18V15C10.7813 14.59 11.1071 14.25 11.5 14.25C11.893 14.25 12.2188 14.59 12.2188 15V18Z" fill="currentColor"/>
</svg>
