<svg width="20" height="20" viewBox="0 0 20 20" fill="none" xmlns="http://www.w3.org/2000/svg">
<path d="M17.7433 15.5861C17.4409 16.2848 17.0829 16.928 16.6681 17.5193C16.1026 18.3255 15.6397 18.8835 15.2829 19.1934C14.7298 19.702 14.1373 19.9625 13.5027 19.9773C13.0472 19.9773 12.4978 19.8477 11.8583 19.5847C11.2167 19.323 10.6271 19.1934 10.088 19.1934C9.52259 19.1934 8.91619 19.323 8.26757 19.5847C7.61796 19.8477 7.09464 19.9847 6.69453 19.9983C6.08603 20.0242 5.4795 19.7563 4.87409 19.1934C4.48768 18.8563 4.00436 18.2786 3.42537 17.4601C2.80415 16.586 2.29343 15.5725 1.89331 14.417C1.46481 13.1689 1.25 11.9603 1.25 10.7902C1.25 9.44984 1.53962 8.29383 2.11973 7.32509C2.57564 6.54696 3.18216 5.93316 3.94128 5.48255C4.70039 5.03195 5.52061 4.80233 6.40392 4.78763C6.88724 4.78763 7.52105 4.93714 8.30868 5.23096C9.09409 5.52576 9.59839 5.67526 9.8195 5.67526C9.9848 5.67526 10.545 5.50045 11.4948 5.15195C12.3929 4.82874 13.1509 4.69492 13.7718 4.74764C15.4545 4.88343 16.7187 5.54675 17.5594 6.74177C16.0545 7.6536 15.3101 8.93072 15.3249 10.5691C15.3385 11.8452 15.8014 12.9071 16.7113 13.7503C17.1236 14.1417 17.5841 14.4441 18.0964 14.6589C17.9853 14.9812 17.868 15.2898 17.7433 15.5861ZM13.8842 0.400114C13.8842 1.40034 13.5188 2.33425 12.7904 3.19867C11.9114 4.22629 10.8482 4.8201 9.6953 4.7264C9.68061 4.60641 9.67209 4.48011 9.67209 4.3474C9.67209 3.38718 10.0901 2.35956 10.8324 1.51934C11.203 1.09392 11.6744 0.74019 12.246 0.458013C12.8163 0.180046 13.3558 0.0263242 13.8632 0C13.878 0.133715 13.8842 0.267438 13.8842 0.400101V0.400114Z" fill="white"/>
</svg>
