<svg width="20" height="20" viewBox="0 0 20 20" fill="none" xmlns="http://www.w3.org/2000/svg">
<path fill-rule="evenodd" clip-rule="evenodd" d="M19.2 10.2178C19.2 9.53825 19.139 8.88484 19.0258 8.25757H10V11.9646H15.1576C14.9354 13.1625 14.2602 14.1775 13.2453 14.857V17.2615H16.3424C18.1545 15.5932 19.2 13.1364 19.2 10.2178Z" fill="#4285F4"/>
<path fill-rule="evenodd" clip-rule="evenodd" d="M9.99993 19.5832C12.5874 19.5832 14.7567 18.725 16.3424 17.2614L13.2452 14.8569C12.387 15.4319 11.2893 15.7716 9.99993 15.7716C7.50391 15.7716 5.39122 14.0858 4.63762 11.8207H1.43591V14.3036C3.01281 17.4356 6.25372 19.5832 9.99993 19.5832Z" fill="#34A853"/>
<path fill-rule="evenodd" clip-rule="evenodd" d="M4.63768 11.8208C4.44601 11.2458 4.33711 10.6316 4.33711 9.99995C4.33711 9.36833 4.44601 8.75412 4.63768 8.17912V5.69617H1.43597C0.786922 6.98992 0.416656 8.45355 0.416656 9.99995C0.416656 11.5464 0.786922 13.01 1.43597 14.3037L4.63768 11.8208Z" fill="#FBBC05"/>
<path fill-rule="evenodd" clip-rule="evenodd" d="M9.99993 4.22818C11.4069 4.22818 12.6702 4.7117 13.6634 5.66132L16.412 2.91265C14.7524 1.36625 12.5831 0.416626 9.99993 0.416626C6.25372 0.416626 3.01281 2.56416 1.43591 5.69617L4.63762 8.17913C5.39122 5.91397 7.50391 4.22818 9.99993 4.22818Z" fill="#EA4335"/>
</svg>
