<svg width='24' height='24' viewBox="0 0 24 24" fill="none" xmlns="http://www.w3.org/2000/svg">
<path d="M16.8201 1.91003H7.18007C5.06007 1.91003 3.32007 3.65003 3.32007 5.77003V19.86C3.32007 21.66 4.61007 22.42 6.19007 21.55L11.0701 18.84C11.5901 18.55 12.4301 18.55 12.9401 18.84L17.8201 21.55C19.4001 22.43 20.6901 21.67 20.6901 19.86V5.77003C20.6801 3.65003 18.9501 1.91003 16.8201 1.91003ZM15.6201 9.03003L11.6201 13.03C11.4701 13.18 11.2801 13.25 11.0901 13.25C10.9001 13.25 10.7101 13.18 10.5601 13.03L9.06007 11.53C8.77007 11.24 8.77007 10.76 9.06007 10.47C9.35007 10.18 9.83007 10.18 10.1201 10.47L11.0901 11.44L14.5601 7.97003C14.8501 7.68003 15.3301 7.68003 15.6201 7.97003C15.9101 8.26003 15.9101 8.74003 15.6201 9.03003Z" fill="currentColor"/>
</svg>
