<svg width="24" height="24" viewBox="0 0 24 24" fill="none" xmlns="http://www.w3.org/2000/svg">
<path d="M11.9902 2.5C12.9107 2.5001 13.7039 2.97412 14.1348 3.73633L14.2119 3.87305L14.3545 3.94141C16.1781 4.81197 17.4404 6.67115 17.4404 8.82031V11.3496C17.4404 11.6164 17.4987 11.9419 17.5781 12.2354C17.6579 12.5301 17.7719 12.8421 17.9053 13.0771L17.9121 13.0879L18.9121 14.748L18.9131 14.75C19.2233 15.2591 19.2776 15.8582 19.0723 16.4033C18.8639 16.9562 18.4354 17.3734 17.8838 17.5547L17.8809 17.5557C15.994 18.1879 14.0075 18.5 12.0195 18.5C10.0317 18.5 8.04653 18.1883 6.16113 17.5469L6.16016 17.5459L5.93652 17.458C5.43653 17.2309 5.07939 16.8536 4.9209 16.4111L4.91895 16.4072C4.72716 15.8853 4.7868 15.3027 5.11719 14.748L5.11816 14.749L6.12793 13.0791L6.13184 13.0723C6.26744 12.8398 6.38124 12.5284 6.46094 12.2354C6.54054 11.9426 6.59961 11.6165 6.59961 11.3496V8.82031C6.59961 6.69935 7.83447 4.85748 9.62305 3.96777L9.76074 3.89844L9.83594 3.76367C10.2688 2.98954 11.0839 2.5 11.9902 2.5Z" fill="currentColor" stroke="currentColor"/>
<path d="M10.2463 20.627V20.6279C10.8281 20.679 11.4228 20.71 12.0198 20.71C12.6069 20.71 13.192 20.679 13.7639 20.6279H13.7678C13.8101 20.6239 13.8568 20.6192 13.9065 20.6152C13.4454 21.1563 12.7618 21.4999 12.0002 21.5C11.3413 21.5 10.6921 21.2318 10.2395 20.7627L10.2219 20.7451L10.1301 20.6523C10.1182 20.6395 10.1075 20.6255 10.0959 20.6123C10.1459 20.6172 10.196 20.6227 10.2463 20.627Z" fill="currentColor" stroke="currentColor"/>
</svg>
