<svg width="24" height="24" viewBox="0 0 24 24" fill="none" xmlns="http://www.w3.org/2000/svg">
<path d="M12.0051 2.45264C12.2577 2.45264 12.4963 2.48024 12.6897 2.52686L12.8674 2.57959L18.3616 4.63623V4.63721C18.7738 4.79425 19.1764 5.12986 19.4758 5.56494C19.7752 5.99999 19.9436 6.49416 19.9397 6.93604V15.0405C19.9396 15.347 19.8364 15.7374 19.6467 16.1167C19.4808 16.4486 19.2681 16.7343 19.052 16.9253L18.9592 17.0005L13.4612 21.1099L13.4592 21.1108C13.076 21.3992 12.5471 21.558 11.9954 21.5581C11.4434 21.5581 10.9138 21.3993 10.5305 21.1108L10.5295 21.1099L5.02954 16.9995L5.02661 16.9976C4.78329 16.8177 4.53384 16.5014 4.34399 16.1206C4.15432 15.7401 4.05014 15.3474 4.05005 15.0405V6.93994C4.0501 6.4964 4.22197 6.00113 4.52368 5.56592C4.82525 5.13104 5.22884 4.79467 5.64575 4.63721L11.1428 2.57959C11.3557 2.50115 11.6682 2.45264 12.0051 2.45264ZM12.0002 7.50049C10.3441 7.50049 9.00024 8.84435 9.00024 10.5005C9.00038 11.7059 9.72453 12.7357 10.7502 13.2085V15.5005C10.7504 16.1865 11.3142 16.7505 12.0002 16.7505C12.6862 16.7504 13.2501 16.1864 13.2502 15.5005V13.2095C14.2751 12.7385 15.0001 11.7158 15.0002 10.5005C15.0002 8.84441 13.6563 7.50059 12.0002 7.50049Z" fill="currentColor" stroke="currentColor"/>
</svg>
