<svg width="24" height="24" viewBox="0 0 24 24" fill="none" xmlns="http://www.w3.org/2000/svg">
<path d="M5.01953 2.5H8.92969C9.89301 2.5 10.5088 2.73344 10.8818 3.10645C11.2522 3.47708 11.4733 4.07588 11.4502 5.00781V8.94238C11.4734 9.9038 11.2496 10.5132 10.8818 10.8818C10.5143 11.2502 9.90795 11.4734 8.95215 11.4502H5.00781C4.07555 11.4733 3.47619 11.2516 3.10547 10.8818C2.73282 10.5099 2.50007 9.89766 2.5 8.94043V5.01953C2.50008 4.08561 2.73147 3.48142 3.10645 3.10645C3.48142 2.73147 4.08561 2.50008 5.01953 2.5ZM6.96973 3.91992C6.47802 3.92003 6.07012 4.20144 5.86621 4.59961H4.94043C4.25442 4.59961 3.69064 5.16364 3.69043 5.84961C3.69043 6.53575 4.25429 7.09961 4.94043 7.09961H6.29102C5.95764 7.50867 5.47293 7.75963 4.94043 7.75977C4.25437 7.75977 3.69056 8.32373 3.69043 9.00977C3.69043 9.69591 4.25429 10.2598 4.94043 10.2598C5.73091 10.2597 6.46751 10.0324 7.10156 9.64941C7.66881 10.0363 8.32464 10.2597 9.00977 10.2598C9.69591 10.2598 10.2598 9.69591 10.2598 9.00977C10.2596 8.32373 9.69583 7.75977 9.00977 7.75977C8.94758 7.75974 8.88447 7.74841 8.81836 7.73047C8.91418 7.52754 8.99739 7.3164 9.0625 7.09668C9.73285 7.06403 10.25 6.51096 10.25 5.84961C10.2498 5.16364 9.68601 4.59961 9 4.59961H8.07324C7.86925 4.20148 7.46146 3.91992 6.96973 3.91992Z" fill="currentColor" stroke="currentColor"/>
<path d="M9 22.75C4.73 22.75 1.25 19.27 1.25 15C1.25 14.59 1.59 14.25 2 14.25C2.41 14.25 2.75 14.59 2.75 15C2.75 17.96 4.81 20.44 7.58 21.09L7.31 20.64C7.1 20.28 7.21 19.82 7.57 19.61C7.92 19.4 8.39 19.51 8.6 19.87L9.65 21.62C9.79 21.85 9.79 22.14 9.66 22.37C9.52 22.6 9.27 22.75 9 22.75Z" fill="currentColor"/>
<path d="M21.9999 9.75C21.5899 9.75 21.2499 9.41 21.2499 9C21.2499 6.04 19.1899 3.56 16.4199 2.91L16.6899 3.36C16.8999 3.72 16.7899 4.18 16.4299 4.39C16.0799 4.6 15.6099 4.49 15.3999 4.13L14.3499 2.38C14.2099 2.15 14.2099 1.86 14.3399 1.63C14.4799 1.4 14.7299 1.25 14.9999 1.25C19.2699 1.25 22.7499 4.73 22.7499 9C22.7499 9.41 22.4099 9.75 21.9999 9.75Z" fill="currentColor"/>
<path d="M16.9201 11.8501C14.1201 11.8501 11.8401 14.1201 11.8401 16.9301C11.8401 19.7301 14.1101 22.0101 16.9201 22.0101C19.7201 22.0101 22.0001 19.7401 22.0001 16.9301C22.0001 14.1201 19.7301 11.8501 16.9201 11.8501ZM19.4001 19.3401C19.0301 19.5201 18.5801 19.3801 18.3901 19.0001L18.2201 18.6601H15.6301L15.4601 19.0001C15.3301 19.2601 15.0601 19.4101 14.7901 19.4101C14.6801 19.4101 14.5601 19.3801 14.4601 19.3301C14.0901 19.1401 13.9401 18.6901 14.1201 18.3201L16.2601 14.0501C16.3901 13.8001 16.6501 13.6401 16.9301 13.6401C17.2101 13.6401 17.4701 13.8001 17.6001 14.0601L19.7401 18.3301C19.9201 18.7001 19.7701 19.1501 19.4001 19.3401Z" fill="currentColor"/>
<path d="M16.3799 17.1598H17.4699L16.9199 16.0698L16.3799 17.1598Z" fill="#18A5A5"/>
</svg>
